<svg width="200" height="200" viewBox="0 0 200 200" fill="none" xmlns="http://www.w3.org/2000/svg">
<path d="M13.8227 12.3436C3.5544 18.8173 0.0822777 76.8352 0 104.054C1.481 155.059 6.6645 180.071 12.3417 185.465C18.0188 190.86 25.9175 197.726 82.936 199.688C139.954 201.65 181.176 194.048 188.087 185.711C194.998 177.373 200.675 136.422 199.935 93.755C199.194 51.0876 191.789 21.6618 186.853 14.0601C181.916 6.45845 139.708 0.818512 104.164 0.0828552C68.6196 -0.652786 24.9302 3.51588 13.8227 12.3436Z" fill="url(#paint0_linear_1300_7)"/>
<path d="M168.451 152.562L48.4854 152.878L77.4541 123.882L139.612 123.465L139.504 93.3135L168.545 64.2451L168.451 152.562ZM152.775 48.4932L123.807 77.4893H61.2305L61.5439 107.845L32.5029 136.913L32 48L152.775 48.4932Z" fill="white"/>
<defs>
<linearGradient id="paint0_linear_1300_7" x1="5.56701" y1="200" x2="198.345" y2="-1.58237" gradientUnits="userSpaceOnUse">
<stop stop-color="#007BFF"/>
<stop offset="0.356593" stop-color="#0068D8"/>
<stop offset="1" stop-color="#002042"/>
</linearGradient>
</defs>
</svg>
