<svg width="1752" height="446" viewBox="0 0 1752 446" fill="none" xmlns="http://www.w3.org/2000/svg">
<path d="M585.295 245.854H444.987V201.078H585.295V245.854ZM605.29 346H444.987C438.835 346 432.113 344.918 424.821 342.753C417.53 340.588 410.751 337.056 404.484 332.157C398.332 327.144 393.148 320.707 388.933 312.846C384.831 304.87 382.78 295.129 382.78 283.622V123.319C382.78 120.243 383.35 117.338 384.489 114.604C385.629 111.869 387.167 109.477 389.104 107.426C391.154 105.375 393.547 103.78 396.281 102.641C399.016 101.501 401.978 100.932 405.168 100.932H605.29V145.365H427.214V283.622C427.214 289.433 428.752 293.876 431.828 296.952C434.904 300.028 439.405 301.566 445.329 301.566H605.29V346ZM866.081 346H705.778C701.677 346 697.233 345.544 692.448 344.633C687.777 343.607 683.106 342.069 678.435 340.019C673.877 337.968 669.491 335.347 665.275 332.157C661.06 328.853 657.3 324.923 653.996 320.365C650.806 315.694 648.243 310.339 646.306 304.301C644.369 298.148 643.4 291.256 643.4 283.622V163.31C643.4 159.208 643.856 154.822 644.768 150.15C645.793 145.365 647.331 140.694 649.382 136.137C651.433 131.465 654.11 127.022 657.414 122.807C660.718 118.591 664.649 114.888 669.206 111.698C673.877 108.394 679.232 105.774 685.271 103.837C691.309 101.9 698.145 100.932 705.778 100.932H866.081V145.365H705.778C699.968 145.365 695.524 146.903 692.448 149.979C689.372 153.056 687.834 157.613 687.834 163.651V283.622C687.834 289.319 689.372 293.762 692.448 296.952C695.638 300.028 700.082 301.566 705.778 301.566H866.081V346ZM1161.56 246.879C1161.56 261.804 1159 275.533 1153.87 288.065C1148.75 300.598 1141.63 311.422 1132.51 320.536C1123.4 329.651 1112.57 336.771 1100.04 341.898C1087.62 346.911 1074.06 349.418 1059.37 349.418H999.211C984.514 349.418 970.899 346.911 958.366 341.898C945.834 336.771 935.01 329.651 925.896 320.536C916.781 311.422 909.603 300.598 904.362 288.065C899.235 275.533 896.672 261.804 896.672 246.879V200.053C896.672 185.242 899.235 171.57 904.362 159.037C909.603 146.391 916.781 135.567 925.896 126.566C935.01 117.452 945.834 110.331 958.366 105.204C970.899 100.077 984.514 97.5137 999.211 97.5137H1059.37C1074.06 97.5137 1087.62 100.077 1100.04 105.204C1112.57 110.331 1123.4 117.452 1132.51 126.566C1141.63 135.567 1148.75 146.391 1153.87 159.037C1159 171.57 1161.56 185.242 1161.56 200.053V246.879ZM1117.13 200.053C1117.13 191.28 1115.71 183.362 1112.86 176.298C1110.12 169.12 1106.19 163.025 1101.07 158.012C1096.05 152.885 1089.96 148.954 1082.78 146.22C1075.72 143.371 1067.91 141.947 1059.37 141.947H999.211C990.552 141.947 982.634 143.371 975.456 146.22C968.392 148.954 962.297 152.885 957.17 158.012C952.043 163.025 948.055 169.12 945.207 176.298C942.473 183.362 941.105 191.28 941.105 200.053V246.879C941.105 255.652 942.473 263.627 945.207 270.805C948.055 277.868 952.043 283.964 957.17 289.091C962.297 294.104 968.392 298.035 975.456 300.883C982.634 303.617 990.552 304.984 999.211 304.984H1059.03C1067.68 304.984 1075.55 303.617 1082.61 300.883C1089.79 298.035 1095.94 294.104 1101.07 289.091C1106.19 283.964 1110.12 277.868 1112.86 270.805C1115.71 263.627 1117.13 255.652 1117.13 246.879V200.053ZM1450.38 327.03C1450.38 330.22 1449.76 333.183 1448.5 335.917C1447.36 338.651 1445.77 341.044 1443.72 343.095C1441.78 345.032 1439.45 346.57 1436.71 347.709C1433.98 348.848 1431.07 349.418 1428 349.418C1425.26 349.418 1422.47 348.905 1419.62 347.88C1416.89 346.854 1414.44 345.202 1412.27 342.924L1249.92 173.393V346H1205.49V119.901C1205.49 115.344 1206.74 111.243 1209.25 107.597C1211.87 103.837 1215.17 101.046 1219.16 99.2227C1223.37 97.5137 1227.7 97.1149 1232.15 98.0264C1236.59 98.8239 1240.41 100.875 1243.6 104.179L1405.95 273.539V100.932H1450.38V327.03ZM1614.1 188.432L1688.96 100.932H1749.63L1644.18 223.808L1748.94 346H1688.62L1614.1 259.184L1539.93 346H1479.44L1584.03 223.808L1479.09 100.932H1539.25L1614.1 188.432Z" fill="#1E1E1E"/>
<path d="M39.7236 83.0664C50.1058 82.5735 62.1732 84.8326 74.6904 89.1143C98.4309 97.2349 124.771 112.971 146.06 133.188C158.08 122.281 180.556 106.039 204.271 95.0654C217.446 88.9687 231.33 84.3415 244.23 83.3164C256.975 82.3037 269.262 84.7899 278.677 93.4248L279.123 93.8408L279.359 94.0645L279.565 94.3174C292.706 110.488 287.919 131.944 277.649 153.765C267.681 174.945 251.341 198.941 235.905 223.146C245.575 234.21 261.593 258.392 272.575 283.099C278.642 296.746 283.365 310.972 284.503 323.543C285.634 336.037 283.285 348.105 273.636 355.609C265.849 361.665 255.212 362.352 244.322 360.552C233.292 358.728 220.951 354.188 208.681 348.426C185.622 337.597 161.924 322.021 146.019 310.162C135.77 317.793 112.503 333.935 88.1328 346.312C74.5393 353.215 60.3029 359.105 47.6387 361.581C35.2138 364.01 22.7481 363.433 14.5117 355.198C6.74124 347.429 4.36202 336.827 5.1416 325.567C5.91847 314.348 9.8455 301.904 15.4023 289.484C25.8908 266.043 42.6795 241.606 57.6074 223.671C44.2574 207.056 29.1766 182.75 19.2061 159.354C13.8853 146.868 9.9127 134.396 8.52637 123.336C7.15897 112.426 8.19215 101.918 14.1152 94.3809C20.0321 86.8515 29.3617 83.5584 39.7236 83.0664Z" fill="url(#paint0_linear_1464_96)" stroke="url(#paint1_linear_1464_96)" stroke-width="10"/>
<defs>
<linearGradient id="paint0_linear_1464_96" x1="10" y1="222.92" x2="282.557" y2="222.92" gradientUnits="userSpaceOnUse">
<stop stop-color="#0E813F"/>
<stop offset="1" stop-color="#002E47"/>
</linearGradient>
<linearGradient id="paint1_linear_1464_96" x1="10" y1="222.92" x2="282.557" y2="222.92" gradientUnits="userSpaceOnUse">
<stop stop-color="#0E813F"/>
<stop offset="1" stop-color="#002E47"/>
</linearGradient>
</defs>
</svg>
