<svg width="1613" height="1613" viewBox="0 0 1613 1613" fill="none" xmlns="http://www.w3.org/2000/svg">
<path d="M111.48 99.5514C28.6662 151.762 0.66357 619.676 0 839.196C11.9443 1250.55 53.7492 1452.27 99.5355 1495.78C145.322 1539.29 209.025 1594.66 668.878 1610.48C1128.73 1626.3 1461.18 1565 1516.92 1497.76C1572.66 1430.52 1618.45 1100.25 1612.47 756.134C1606.5 412.021 1546.78 174.702 1506.97 113.395C1467.15 52.0874 1126.74 6.60132 840.079 0.668335C553.417 -5.26465 201.062 28.3557 111.48 99.5514Z" fill="url(#paint0_linear_1465_105)"/>
<path d="M317.2 1313.85C413.912 1389.06 684.348 1219.83 807.476 1125.82C867.921 1172.83 1210.44 1414.58 1311.18 1313.85C1411.93 1213.12 1250.74 951.225 1129.85 810.206C1237.31 682.618 1385.06 407.291 1311.19 313.279C1237.31 219.267 975.379 313.279 807.476 481.16C726.883 400.577 424.658 192.405 297.052 313.279C209.743 420.723 350.781 608.749 478.387 810.206C411.226 877.358 196.311 1219.83 317.2 1313.85Z" fill="url(#paint1_linear_1465_105)"/>
<defs>
<linearGradient id="paint0_linear_1465_105" x1="35.5" y1="764" x2="1531" y2="764" gradientUnits="userSpaceOnUse">
<stop stop-color="#0E813F"/>
<stop offset="1" stop-color="#002E47"/>
</linearGradient>
<linearGradient id="paint1_linear_1465_105" x1="371" y1="1216.5" x2="1732.5" y2="-177" gradientUnits="userSpaceOnUse">
<stop stop-color="white"/>
<stop offset="1" stop-color="#999999"/>
</linearGradient>
</defs>
</svg>
